Coordinates
version=1
nRows=17
nColumns=40
inDegrees=yes

Units are S.I. units (second, meters, Newtons, ...)
Angles are in degrees.

endheader
time	pelvis_tilt	pelvis_list	pelvis_rotation	pelvis_tx	pelvis_ty	pelvis_tz	hip_flexion_r	hip_adduction_r	hip_rotation_r	knee_angle_r	knee_angle_r_beta	ankle_angle_r	subtalar_angle_r	mtp_angle_r	hip_flexion_l	hip_adduction_l	hip_rotation_l	knee_angle_l	knee_angle_l_beta	ankle_angle_l	subtalar_angle_l	mtp_angle_l	lumbar_extension	lumbar_bending	lumbar_rotation	arm_flex_r	arm_add_r	arm_rot_r	elbow_flex_r	pro_sup_r	wrist_flex_r	wrist_dev_r	arm_flex_l	arm_add_l	arm_rot_l	elbow_flex_l	pro_sup_l	wrist_flex_l	wrist_dev_l
     19.88000000	     -4.73184417	     -4.68147160	     -1.75886648	      0.83433752	      0.92257607	      0.48275878	     21.77890770	      2.71216651	    -11.39893990	     19.79567584	     19.79567584	      4.22289882	     -3.72404081	     -2.86113246	      4.29164412	     -9.57156960	     -7.06883017	     36.38927055	     36.38927055	     13.56573157	     -9.12490110	    -11.67969335	     -8.80770682	      7.66335965	     -0.34890821	      0.11826550	    -12.90438627	     -9.39766699	     39.38774025	     46.01856212	      0.00000000	      0.00000000	      9.88661143	    -13.05700227	     -9.76173891	     62.68521054	     47.37992728	      0.00000000	      0.00000000
     19.89342857	     -4.58893993	     -4.65850995	     -1.53404427	      0.83526992	      0.92362034	      0.48524197	     21.03788518	      2.72982642	    -11.82515885	     19.76105513	     19.76105513	      4.88843955	     -3.09910122	     -2.87637646	      5.95843914	     -9.93196767	     -5.96294723	     40.08857389	     40.08857389	     10.56635412	    -11.42499974	    -14.09612719	     -8.89540746	      7.60635917	      0.58032257	      0.21490564	    -13.65536378	    -10.12479073	     42.75529066	     45.91253721	      0.00000000	      0.00000000	     11.27039598	    -11.78915868	     -9.53027377	     56.17426006	     47.27554271	      0.00000000	      0.00000000
     19.90685714	     -4.48107092	     -4.69096192	     -1.24919306	      0.83600237	      0.92435347	      0.48763544	     20.35406751	      2.79248897	    -12.31022443	     19.73922786	     19.73922786	      5.45808471	     -2.59881568	     -3.07888250	      7.92576242	    -10.34901967	     -4.82929179	     44.17164961	     44.17164961	      8.72153134	    -12.70707241	    -13.62507068	     -8.97889200	      7.55070576	      0.12722550	      1.76480193	    -14.05072786	    -10.50021177	     44.56241998	     45.86805860	      0.00000000	      0.00000000	     10.39522720	    -11.59700828	     -9.13658700	     53.40298615	     47.19646980	      0.00000000	      0.00000000
     19.92028571	     -4.39168444	     -4.77070646	     -0.99625530	      0.83648979	      0.92496533	      0.48990563	     19.69385740	      2.87948348	    -12.93848299	     19.70501381	     19.70501381	      6.04071331	     -1.84955303	     -3.09306424	     10.04070182	    -10.76711043	     -3.73941928	     48.30542577	     48.30542577	      7.73947583	    -13.30781363	    -11.01845379	     -9.05045715	      7.59201343	      0.86432442	      2.28680329	    -14.92699169	    -10.78587754	     47.23085082	     45.77571392	      0.00000000	      0.00000000	     11.01923955	    -10.73593886	     -8.71012899	     48.49187890	     47.09430305	      0.00000000	      0.00000000
     19.93371429	     -4.29294559	     -4.81253427	     -0.71050955	      0.83677026	      0.92542777	      0.49202076	     19.08935163	      2.91610129	    -13.50768410	     19.76039711	     19.76039711	      6.56239440	     -1.23712769	     -3.25086333	     12.12535075	    -11.05373528	     -2.64215894	     52.04916177	     52.04916177	      6.56203141	    -14.25135781	     -8.92469983	     -9.12866208	      7.54492665	      0.38516265	      3.91278438	    -15.32949714	    -11.01360107	     49.00683780	     45.72731598	      0.00000000	      0.00000000	     10.09974943	    -10.53716141	     -8.41739082	     45.66539969	     47.02127848	      0.00000000	      0.00000000
     19.94714286	     -4.16115667	     -5.01153023	     -0.50924660	      0.83689169	      0.92591539	      0.49419117	     18.39826259	      3.20435879	    -13.85659303	     19.67862846	     19.67862846	      6.95806502	     -0.92091330	     -3.35348637	     14.07921703	    -11.58972390	     -1.83377039	     55.29514603	     55.29514603	      5.21488330	    -15.04023467	     -8.01853855	     -9.34749779	      7.66054474	      0.66647694	      5.48558414	    -16.07033420	    -11.19827151	     49.94229719	     45.71073711	      0.00000000	      0.00000000	      9.12071251	    -10.06570842	     -8.24410593	     44.35579961	     46.97924790	      0.00000000	      0.00000000
     19.96057143	     -4.28400333	     -5.11797276	     -0.13699837	      0.83663512	      0.92605054	      0.49593619	     17.98324727	      3.29471158	    -14.54334616	     19.56194207	     19.56194207	      7.44169069	     -0.26835211	     -3.42791192	     16.42047789	    -11.79528809	     -0.72018204	     58.23888713	     58.23888713	      4.64251557	    -15.96123276	     -5.46079675	     -9.20207121	      7.67980472	      0.09800981	      7.07403535	    -16.31404312	    -11.15791280	     51.62864449	     45.65553036	      0.00000000	      0.00000000	      8.14274219	     -9.94148215	     -8.03097966	     41.35009557	     46.91784853	      0.00000000	      0.00000000
     19.97400000	     -4.09249200	     -5.07040930	     -0.01758053	      0.83634880	      0.92673291	      0.49757732	     17.36456078	      3.22275089	    -14.99385101	     19.73607548	     19.73607548	      8.09954322	      0.57090108	     -2.80641458	     18.44066794	    -11.94575211	     -0.18611150	     61.11704767	     61.11704767	      7.23590442	    -15.12932839	      3.50126183	     -9.43717394	      7.62770744	      1.24307266	      7.58416872	    -17.74575939	    -10.60193255	     54.34473648	     45.53744824	      0.00000000	      0.00000000	      9.38304178	     -8.96940815	     -7.93089150	     35.26283109	     46.84916230	      0.00000000	      0.00000000
     19.98742857	     -4.09558767	     -5.13383358	      0.18397289	      0.83578904	      0.92721195	      0.49923233	     16.81417719	      3.36657919	    -15.28522521	     19.53481644	     19.53481644	      8.41693925	      0.90748677	     -2.78854196	     20.34569287	    -12.19562123	      0.32748337	     62.70451692	     62.70451692	      6.70470923	    -16.19067247	      4.41464310	     -9.50496061	      7.61836037	      1.07668566	      9.37267322	    -18.04134333	    -10.87438182	     55.60495189	     45.51409895	      0.00000000	      0.00000000	      8.04970083	     -8.90502191	     -7.86211789	     33.95095594	     46.80757218	      0.00000000	      0.00000000
     20.00085714	     -4.09106851	     -5.21527922	      0.41197531	      0.83505031	      0.92774423	      0.50068671	     16.24209172	      3.52237806	    -15.62381520	     19.28324415	     19.28324415	      8.70590877	      1.24529486	     -2.68843096	     22.19679437	    -12.45781494	      0.73996014	     63.75764413	     63.75764413	      6.73282791	    -17.04449176	      5.63847593	     -9.60882955	      7.63697699	      0.92487745	     11.11330651	    -18.38716431	    -10.92263079	     56.87062484	     45.48159627	      0.00000000	      0.00000000	      6.91622523	     -8.74027423	     -7.73998538	     32.33341714	     46.76196659	      0.00000000	      0.00000000
     20.01428571	     -4.06010958	     -5.17274156	      0.56566501	      0.83410152	      0.92844170	      0.50194830	     15.71349789	      3.54430265	    -15.79635440	     19.15628794	     19.15628794	      9.14872023	      1.59852014	     -2.30687732	     23.94611005	    -12.57342952	      0.96487982	     64.30213263	     64.30213263	      7.80563310	    -17.32846194	      8.98881303	     -9.76020450	      7.54840950	      1.46098501	     12.52218119	    -19.30377263	    -10.38416409	     58.16096479	     45.42909560	      0.00000000	      0.00000000	      6.45158192	     -8.30538566	     -7.58534769	     29.94009885	     46.70093121	      0.00000000	      0.00000000
     20.02771429	     -4.06253390	     -5.22526021	      0.78319799	      0.83309414	      0.92916551	      0.50308124	     15.07727761	      3.72725292	    -15.93595092	     18.70884085	     18.70884085	      9.32953146	      1.67269187	     -2.19838687	     25.52763442	    -12.81098706	      1.08098781	     63.99141110	     63.99141110	      7.98446651	    -17.88046705	      9.40571003	     -9.87718722	      7.59150744	      1.42699118	     14.30876089	    -19.56802120	    -10.61992989	     59.36399636	     45.40691647	      0.00000000	      0.00000000	      5.10126148	     -8.24484052	     -7.53069491	     29.06755317	     46.66361329	      0.00000000	      0.00000000
     20.04114286	     -4.08226351	     -5.19294531	      0.98202934	      0.83194379	      0.92985669	      0.50400372	     14.47932711	      3.81324006	    -16.02954087	     18.27906407	     18.27906407	      9.51258527	      1.71874561	     -2.11035986	     26.96171624	    -12.91643046	      1.06003120	     63.05845931	     63.05845931	      8.41956324	    -18.22885990	      9.87986035	     -9.98348524	      7.53578720	      1.50909145	     16.00970684	    -19.86680609	    -10.74086753	     60.52166198	     45.38141123	      0.00000000	      0.00000000	      3.89434234	     -8.10791134	     -7.43977061	     28.29883444	     46.62358838	      0.00000000	      0.00000000
     20.05457143	     -4.17885512	     -5.08432716	      1.14166754	      0.83056840	      0.93039651	      0.50472053	     14.04202225	      3.80026862	    -16.00962479	     17.97048158	     17.97048158	      9.72774529	      1.72699985	     -2.10001021	     28.33259416	    -12.90982041	      0.91139899	     61.56562590	     61.56562590	      8.79437192	    -18.34853686	     10.14401906	    -10.05500406	      7.40308922	      1.96330308	     17.53555275	    -20.47941190	    -10.92940750	     61.34387643	     45.36895471	      0.00000000	      0.00000000	      2.77884747	     -7.87249103	     -7.38358604	     27.78856709	     46.59232537	      0.00000000	      0.00000000
     20.06800000	     -4.18802294	     -4.99090654	      1.42480796	      0.82917448	      0.93108117	      0.50508423	     13.33661100	      3.82544900	    -16.09955195	     17.32219823	     17.32219823	      9.86666244	      1.77238326	     -2.05314260	     29.48247083	    -12.66727819	      1.00587385	     59.58452797	     59.58452797	      9.84914281	    -18.40299506	     12.22881743	    -10.22980663	      7.38159024	      1.62484090	     19.10888098	    -20.64681939	    -10.16490684	     63.80910257	     45.27636477	      0.00000000	      0.00000000	      1.48801564	     -7.91895920	     -6.69366534	     27.19649164	     46.42767119	      0.00000000	      0.00000000
     20.08142857	     -4.28571831	     -4.89919881	      1.64097578	      0.82768517	      0.93151585	      0.50533771	     12.83200803	      3.82500950	    -16.11175089	     16.86050664	     16.86050664	      9.99617132	      1.74116359	     -2.02066372	     30.47921094	    -12.44985781	      0.92623799	     56.99817903	     56.99817903	     10.16906250	    -18.40013825	     12.43213093	    -10.29393513	      7.31722082	      1.78216927	     20.67862162	    -20.86919432	    -10.39135050	     64.91056445	     45.25745512	      0.00000000	      0.00000000	      0.23725349	     -7.76712732	     -6.53210865	     26.73386823	     46.37345511	      0.00000000	      0.00000000
     20.09485714	     -4.41938991	     -4.76734481	      1.86979926	      0.82609110	      0.93178018	      0.50538731	     12.39330716	      3.76252982	    -16.13461975	     16.44320777	     16.44320777	     10.16732527	      1.67726318	     -2.03351314	     31.32410208	    -12.09612862	      0.84054635	     53.97983926	     53.97983926	     10.48529445	    -18.30177549	     12.61766062	    -10.30355410	      7.24461462	      1.96014994	     22.18974182	    -21.09019115	    -10.53925340	     66.07568441	     45.23247808	      0.00000000	      0.00000000	     -0.83459761	     -7.61903525	     -6.38838577	     26.42473831	     46.32558716	      0.00000000	      0.00000000
